<mxfile host="Electron" modified="2024-11-08T11:14:34.464Z" agent="Mozilla/5.0 (Windows NT 10.0; Win64; x64) AppleWebKit/537.36 (KHTML, like Gecko) draw.io/23.0.2 Chrome/120.0.6099.109 Electron/28.1.0 Safari/537.36" etag="aVLJazeIxfmYHM6PJLpb" version="23.0.2" type="device">
  <diagram name="Сторінка-1" id="xzeVNwt38664YKivon82">
    <mxGraphModel dx="1311" dy="776" grid="1" gridSize="10" guides="1" tooltips="1" connect="1" arrows="1" fold="1" page="1" pageScale="1" pageWidth="827" pageHeight="1169" math="0" shadow="0">
      <root>
        <mxCell id="0" />
        <mxCell id="1" parent="0" />
        <mxCell id="5bOKIBlJ_df4a_-p4DKL-1" value="End" style="ellipse;whiteSpace=wrap;html=1;" vertex="1" parent="1">
          <mxGeometry x="420" y="910" width="120" height="80" as="geometry" />
        </mxCell>
        <mxCell id="5bOKIBlJ_df4a_-p4DKL-9" style="edgeStyle=orthogonalEdgeStyle;rounded=0;orthogonalLoop=1;jettySize=auto;html=1;entryX=0.5;entryY=0;entryDx=0;entryDy=0;" edge="1" parent="1" source="5bOKIBlJ_df4a_-p4DKL-2" target="5bOKIBlJ_df4a_-p4DKL-3">
          <mxGeometry relative="1" as="geometry" />
        </mxCell>
        <mxCell id="5bOKIBlJ_df4a_-p4DKL-2" value="Start" style="ellipse;whiteSpace=wrap;html=1;" vertex="1" parent="1">
          <mxGeometry x="200" y="20" width="120" height="80" as="geometry" />
        </mxCell>
        <mxCell id="5bOKIBlJ_df4a_-p4DKL-10" style="edgeStyle=orthogonalEdgeStyle;rounded=0;orthogonalLoop=1;jettySize=auto;html=1;entryX=0.5;entryY=0;entryDx=0;entryDy=0;" edge="1" parent="1" source="5bOKIBlJ_df4a_-p4DKL-3" target="5bOKIBlJ_df4a_-p4DKL-5">
          <mxGeometry relative="1" as="geometry" />
        </mxCell>
        <mxCell id="5bOKIBlJ_df4a_-p4DKL-12" style="edgeStyle=orthogonalEdgeStyle;rounded=0;orthogonalLoop=1;jettySize=auto;html=1;" edge="1" parent="1" source="5bOKIBlJ_df4a_-p4DKL-3" target="5bOKIBlJ_df4a_-p4DKL-4">
          <mxGeometry relative="1" as="geometry" />
        </mxCell>
        <mxCell id="5bOKIBlJ_df4a_-p4DKL-3" value="Input weather" style="rounded=0;whiteSpace=wrap;html=1;" vertex="1" parent="1">
          <mxGeometry x="200" y="140" width="120" height="60" as="geometry" />
        </mxCell>
        <mxCell id="5bOKIBlJ_df4a_-p4DKL-13" style="edgeStyle=orthogonalEdgeStyle;rounded=0;orthogonalLoop=1;jettySize=auto;html=1;exitX=0.5;exitY=1;exitDx=0;exitDy=0;entryX=0.5;entryY=0;entryDx=0;entryDy=0;" edge="1" parent="1" source="5bOKIBlJ_df4a_-p4DKL-4" target="5bOKIBlJ_df4a_-p4DKL-8">
          <mxGeometry relative="1" as="geometry" />
        </mxCell>
        <mxCell id="5bOKIBlJ_df4a_-p4DKL-4" value="Validate weather" style="rhombus;whiteSpace=wrap;html=1;" vertex="1" parent="1">
          <mxGeometry x="440" y="130" width="80" height="80" as="geometry" />
        </mxCell>
        <mxCell id="5bOKIBlJ_df4a_-p4DKL-29" style="edgeStyle=orthogonalEdgeStyle;rounded=0;orthogonalLoop=1;jettySize=auto;html=1;entryX=0;entryY=0.5;entryDx=0;entryDy=0;exitX=0;exitY=0.5;exitDx=0;exitDy=0;" edge="1" parent="1" source="5bOKIBlJ_df4a_-p4DKL-5" target="5bOKIBlJ_df4a_-p4DKL-1">
          <mxGeometry relative="1" as="geometry" />
        </mxCell>
        <mxCell id="5bOKIBlJ_df4a_-p4DKL-5" value="Invalid input" style="rounded=0;whiteSpace=wrap;html=1;" vertex="1" parent="1">
          <mxGeometry x="40" y="240" width="120" height="60" as="geometry" />
        </mxCell>
        <mxCell id="5bOKIBlJ_df4a_-p4DKL-18" style="edgeStyle=orthogonalEdgeStyle;rounded=0;orthogonalLoop=1;jettySize=auto;html=1;entryX=1;entryY=0.5;entryDx=0;entryDy=0;" edge="1" parent="1" source="5bOKIBlJ_df4a_-p4DKL-6" target="5bOKIBlJ_df4a_-p4DKL-16">
          <mxGeometry relative="1" as="geometry">
            <mxPoint x="520" y="470" as="targetPoint" />
          </mxGeometry>
        </mxCell>
        <mxCell id="5bOKIBlJ_df4a_-p4DKL-6" value="No jacket needed" style="rounded=0;whiteSpace=wrap;html=1;" vertex="1" parent="1">
          <mxGeometry x="500" y="340" width="120" height="60" as="geometry" />
        </mxCell>
        <mxCell id="5bOKIBlJ_df4a_-p4DKL-17" style="edgeStyle=orthogonalEdgeStyle;rounded=0;orthogonalLoop=1;jettySize=auto;html=1;entryX=0;entryY=0.5;entryDx=0;entryDy=0;" edge="1" parent="1" source="5bOKIBlJ_df4a_-p4DKL-7" target="5bOKIBlJ_df4a_-p4DKL-16">
          <mxGeometry relative="1" as="geometry">
            <mxPoint x="440" y="470" as="targetPoint" />
          </mxGeometry>
        </mxCell>
        <mxCell id="5bOKIBlJ_df4a_-p4DKL-7" value="Wear jacket" style="rounded=0;whiteSpace=wrap;html=1;" vertex="1" parent="1">
          <mxGeometry x="340" y="340" width="120" height="60" as="geometry" />
        </mxCell>
        <mxCell id="5bOKIBlJ_df4a_-p4DKL-14" style="edgeStyle=orthogonalEdgeStyle;rounded=0;orthogonalLoop=1;jettySize=auto;html=1;entryX=0.5;entryY=0;entryDx=0;entryDy=0;exitX=0;exitY=0.5;exitDx=0;exitDy=0;" edge="1" parent="1" target="5bOKIBlJ_df4a_-p4DKL-7">
          <mxGeometry relative="1" as="geometry">
            <mxPoint x="400" y="330" as="targetPoint" />
            <mxPoint x="440" y="280" as="sourcePoint" />
          </mxGeometry>
        </mxCell>
        <mxCell id="5bOKIBlJ_df4a_-p4DKL-15" style="edgeStyle=orthogonalEdgeStyle;rounded=0;orthogonalLoop=1;jettySize=auto;html=1;entryX=0.5;entryY=0;entryDx=0;entryDy=0;exitX=1;exitY=0.5;exitDx=0;exitDy=0;" edge="1" parent="1" target="5bOKIBlJ_df4a_-p4DKL-6">
          <mxGeometry relative="1" as="geometry">
            <mxPoint x="520" y="280" as="sourcePoint" />
          </mxGeometry>
        </mxCell>
        <mxCell id="5bOKIBlJ_df4a_-p4DKL-8" value="Check &lt;br&gt;jacket&lt;br&gt;need&amp;nbsp;&lt;br&gt;" style="rhombus;whiteSpace=wrap;html=1;" vertex="1" parent="1">
          <mxGeometry x="440" y="240" width="80" height="80" as="geometry" />
        </mxCell>
        <mxCell id="5bOKIBlJ_df4a_-p4DKL-24" style="edgeStyle=orthogonalEdgeStyle;rounded=0;orthogonalLoop=1;jettySize=auto;html=1;entryX=0.5;entryY=0;entryDx=0;entryDy=0;exitX=0.5;exitY=1;exitDx=0;exitDy=0;" edge="1" parent="1" target="5bOKIBlJ_df4a_-p4DKL-23">
          <mxGeometry relative="1" as="geometry">
            <mxPoint x="560" y="510" as="sourcePoint" />
          </mxGeometry>
        </mxCell>
        <mxCell id="5bOKIBlJ_df4a_-p4DKL-25" style="edgeStyle=orthogonalEdgeStyle;rounded=0;orthogonalLoop=1;jettySize=auto;html=1;entryX=0.5;entryY=0;entryDx=0;entryDy=0;exitX=0.5;exitY=1;exitDx=0;exitDy=0;" edge="1" parent="1" target="5bOKIBlJ_df4a_-p4DKL-22">
          <mxGeometry relative="1" as="geometry">
            <mxPoint x="560" y="510" as="sourcePoint" />
          </mxGeometry>
        </mxCell>
        <mxCell id="5bOKIBlJ_df4a_-p4DKL-26" style="edgeStyle=orthogonalEdgeStyle;rounded=0;orthogonalLoop=1;jettySize=auto;html=1;entryX=0.5;entryY=0;entryDx=0;entryDy=0;" edge="1" parent="1" target="5bOKIBlJ_df4a_-p4DKL-21">
          <mxGeometry relative="1" as="geometry">
            <mxPoint x="480" y="550" as="targetPoint" />
            <mxPoint x="560" y="510" as="sourcePoint" />
          </mxGeometry>
        </mxCell>
        <mxCell id="5bOKIBlJ_df4a_-p4DKL-27" style="edgeStyle=orthogonalEdgeStyle;rounded=0;orthogonalLoop=1;jettySize=auto;html=1;exitX=0.5;exitY=1;exitDx=0;exitDy=0;entryX=0.5;entryY=0;entryDx=0;entryDy=0;" edge="1" parent="1" target="5bOKIBlJ_df4a_-p4DKL-20">
          <mxGeometry relative="1" as="geometry">
            <mxPoint x="560" y="510" as="sourcePoint" />
          </mxGeometry>
        </mxCell>
        <mxCell id="5bOKIBlJ_df4a_-p4DKL-28" style="edgeStyle=orthogonalEdgeStyle;rounded=0;orthogonalLoop=1;jettySize=auto;html=1;entryX=0.5;entryY=0;entryDx=0;entryDy=0;exitX=0.5;exitY=1;exitDx=0;exitDy=0;" edge="1" parent="1" target="5bOKIBlJ_df4a_-p4DKL-19">
          <mxGeometry relative="1" as="geometry">
            <mxPoint x="560" y="510" as="sourcePoint" />
          </mxGeometry>
        </mxCell>
        <mxCell id="5bOKIBlJ_df4a_-p4DKL-16" value="Activity&lt;br&gt;suggestion" style="rhombus;whiteSpace=wrap;html=1;" vertex="1" parent="1">
          <mxGeometry x="440" y="430" width="80" height="80" as="geometry" />
        </mxCell>
        <mxCell id="5bOKIBlJ_df4a_-p4DKL-40" style="edgeStyle=orthogonalEdgeStyle;rounded=0;orthogonalLoop=1;jettySize=auto;html=1;entryX=0.5;entryY=0;entryDx=0;entryDy=0;exitX=0.5;exitY=1;exitDx=0;exitDy=0;" edge="1" parent="1" source="5bOKIBlJ_df4a_-p4DKL-19" target="5bOKIBlJ_df4a_-p4DKL-30">
          <mxGeometry relative="1" as="geometry" />
        </mxCell>
        <mxCell id="5bOKIBlJ_df4a_-p4DKL-19" value="Launch kite" style="rounded=0;whiteSpace=wrap;html=1;" vertex="1" parent="1">
          <mxGeometry x="720" y="555" width="120" height="60" as="geometry" />
        </mxCell>
        <mxCell id="5bOKIBlJ_df4a_-p4DKL-39" style="edgeStyle=orthogonalEdgeStyle;rounded=0;orthogonalLoop=1;jettySize=auto;html=1;entryX=0.5;entryY=0;entryDx=0;entryDy=0;exitX=0.5;exitY=1;exitDx=0;exitDy=0;" edge="1" parent="1" source="5bOKIBlJ_df4a_-p4DKL-20" target="5bOKIBlJ_df4a_-p4DKL-30">
          <mxGeometry relative="1" as="geometry" />
        </mxCell>
        <mxCell id="5bOKIBlJ_df4a_-p4DKL-20" value="Make snowman" style="rounded=0;whiteSpace=wrap;html=1;" vertex="1" parent="1">
          <mxGeometry x="570" y="555" width="120" height="60" as="geometry" />
        </mxCell>
        <mxCell id="5bOKIBlJ_df4a_-p4DKL-38" style="edgeStyle=orthogonalEdgeStyle;rounded=0;orthogonalLoop=1;jettySize=auto;html=1;" edge="1" parent="1" source="5bOKIBlJ_df4a_-p4DKL-21">
          <mxGeometry relative="1" as="geometry">
            <mxPoint x="480" y="670" as="targetPoint" />
          </mxGeometry>
        </mxCell>
        <mxCell id="5bOKIBlJ_df4a_-p4DKL-21" value="Visit museum" style="rounded=0;whiteSpace=wrap;html=1;" vertex="1" parent="1">
          <mxGeometry x="420" y="555" width="120" height="60" as="geometry" />
        </mxCell>
        <mxCell id="5bOKIBlJ_df4a_-p4DKL-37" style="edgeStyle=orthogonalEdgeStyle;rounded=0;orthogonalLoop=1;jettySize=auto;html=1;entryX=0.5;entryY=0;entryDx=0;entryDy=0;exitX=0.5;exitY=1;exitDx=0;exitDy=0;" edge="1" parent="1" source="5bOKIBlJ_df4a_-p4DKL-22" target="5bOKIBlJ_df4a_-p4DKL-30">
          <mxGeometry relative="1" as="geometry" />
        </mxCell>
        <mxCell id="5bOKIBlJ_df4a_-p4DKL-22" value="Read inside" style="rounded=0;whiteSpace=wrap;html=1;" vertex="1" parent="1">
          <mxGeometry x="270" y="555" width="120" height="60" as="geometry" />
        </mxCell>
        <mxCell id="5bOKIBlJ_df4a_-p4DKL-36" style="edgeStyle=orthogonalEdgeStyle;rounded=0;orthogonalLoop=1;jettySize=auto;html=1;exitX=0.5;exitY=1;exitDx=0;exitDy=0;" edge="1" parent="1" source="5bOKIBlJ_df4a_-p4DKL-23" target="5bOKIBlJ_df4a_-p4DKL-30">
          <mxGeometry relative="1" as="geometry" />
        </mxCell>
        <mxCell id="5bOKIBlJ_df4a_-p4DKL-23" value="Picnic" style="rounded=0;whiteSpace=wrap;html=1;" vertex="1" parent="1">
          <mxGeometry x="110" y="555" width="120" height="60" as="geometry" />
        </mxCell>
        <mxCell id="5bOKIBlJ_df4a_-p4DKL-41" style="edgeStyle=orthogonalEdgeStyle;rounded=0;orthogonalLoop=1;jettySize=auto;html=1;entryX=0.5;entryY=0;entryDx=0;entryDy=0;exitX=0.5;exitY=1;exitDx=0;exitDy=0;" edge="1" parent="1" source="5bOKIBlJ_df4a_-p4DKL-30" target="5bOKIBlJ_df4a_-p4DKL-35">
          <mxGeometry relative="1" as="geometry" />
        </mxCell>
        <mxCell id="5bOKIBlJ_df4a_-p4DKL-42" style="edgeStyle=orthogonalEdgeStyle;rounded=0;orthogonalLoop=1;jettySize=auto;html=1;entryX=0.5;entryY=0;entryDx=0;entryDy=0;exitX=0.5;exitY=1;exitDx=0;exitDy=0;" edge="1" parent="1" source="5bOKIBlJ_df4a_-p4DKL-30" target="5bOKIBlJ_df4a_-p4DKL-34">
          <mxGeometry relative="1" as="geometry" />
        </mxCell>
        <mxCell id="5bOKIBlJ_df4a_-p4DKL-43" style="edgeStyle=orthogonalEdgeStyle;rounded=0;orthogonalLoop=1;jettySize=auto;html=1;entryX=0.5;entryY=0;entryDx=0;entryDy=0;" edge="1" parent="1" source="5bOKIBlJ_df4a_-p4DKL-30" target="5bOKIBlJ_df4a_-p4DKL-33">
          <mxGeometry relative="1" as="geometry" />
        </mxCell>
        <mxCell id="5bOKIBlJ_df4a_-p4DKL-44" style="edgeStyle=orthogonalEdgeStyle;rounded=0;orthogonalLoop=1;jettySize=auto;html=1;entryX=0.5;entryY=0;entryDx=0;entryDy=0;" edge="1" parent="1" target="5bOKIBlJ_df4a_-p4DKL-32">
          <mxGeometry relative="1" as="geometry">
            <mxPoint x="490" y="770" as="sourcePoint" />
          </mxGeometry>
        </mxCell>
        <mxCell id="5bOKIBlJ_df4a_-p4DKL-45" style="edgeStyle=orthogonalEdgeStyle;rounded=0;orthogonalLoop=1;jettySize=auto;html=1;exitX=0.5;exitY=1;exitDx=0;exitDy=0;" edge="1" parent="1" source="5bOKIBlJ_df4a_-p4DKL-30" target="5bOKIBlJ_df4a_-p4DKL-31">
          <mxGeometry relative="1" as="geometry" />
        </mxCell>
        <mxCell id="5bOKIBlJ_df4a_-p4DKL-30" value="Footwear&lt;br&gt;suggestion" style="rhombus;whiteSpace=wrap;html=1;" vertex="1" parent="1">
          <mxGeometry x="440" y="670" width="80" height="80" as="geometry" />
        </mxCell>
        <mxCell id="5bOKIBlJ_df4a_-p4DKL-50" style="edgeStyle=orthogonalEdgeStyle;rounded=0;orthogonalLoop=1;jettySize=auto;html=1;entryX=0.5;entryY=0;entryDx=0;entryDy=0;exitX=0.5;exitY=1;exitDx=0;exitDy=0;" edge="1" parent="1" source="5bOKIBlJ_df4a_-p4DKL-31" target="5bOKIBlJ_df4a_-p4DKL-1">
          <mxGeometry relative="1" as="geometry" />
        </mxCell>
        <mxCell id="5bOKIBlJ_df4a_-p4DKL-31" value="Strong shoes" style="rounded=0;whiteSpace=wrap;html=1;" vertex="1" parent="1">
          <mxGeometry x="720" y="790" width="120" height="60" as="geometry" />
        </mxCell>
        <mxCell id="5bOKIBlJ_df4a_-p4DKL-49" style="edgeStyle=orthogonalEdgeStyle;rounded=0;orthogonalLoop=1;jettySize=auto;html=1;entryX=0.5;entryY=0;entryDx=0;entryDy=0;exitX=0.5;exitY=1;exitDx=0;exitDy=0;" edge="1" parent="1" source="5bOKIBlJ_df4a_-p4DKL-32" target="5bOKIBlJ_df4a_-p4DKL-1">
          <mxGeometry relative="1" as="geometry" />
        </mxCell>
        <mxCell id="5bOKIBlJ_df4a_-p4DKL-32" value="Any shoes" style="rounded=0;whiteSpace=wrap;html=1;" vertex="1" parent="1">
          <mxGeometry x="570" y="790" width="120" height="60" as="geometry" />
        </mxCell>
        <mxCell id="5bOKIBlJ_df4a_-p4DKL-48" style="edgeStyle=orthogonalEdgeStyle;rounded=0;orthogonalLoop=1;jettySize=auto;html=1;" edge="1" parent="1" source="5bOKIBlJ_df4a_-p4DKL-33">
          <mxGeometry relative="1" as="geometry">
            <mxPoint x="480" y="910" as="targetPoint" />
          </mxGeometry>
        </mxCell>
        <mxCell id="5bOKIBlJ_df4a_-p4DKL-33" value="Rain boots" style="rounded=0;whiteSpace=wrap;html=1;" vertex="1" parent="1">
          <mxGeometry x="420" y="790" width="120" height="60" as="geometry" />
        </mxCell>
        <mxCell id="5bOKIBlJ_df4a_-p4DKL-47" style="edgeStyle=orthogonalEdgeStyle;rounded=0;orthogonalLoop=1;jettySize=auto;html=1;entryX=0.5;entryY=0;entryDx=0;entryDy=0;exitX=0.5;exitY=1;exitDx=0;exitDy=0;" edge="1" parent="1" source="5bOKIBlJ_df4a_-p4DKL-34" target="5bOKIBlJ_df4a_-p4DKL-1">
          <mxGeometry relative="1" as="geometry" />
        </mxCell>
        <mxCell id="5bOKIBlJ_df4a_-p4DKL-34" value="Snow boots" style="rounded=0;whiteSpace=wrap;html=1;" vertex="1" parent="1">
          <mxGeometry x="270" y="790" width="120" height="60" as="geometry" />
        </mxCell>
        <mxCell id="5bOKIBlJ_df4a_-p4DKL-46" style="edgeStyle=orthogonalEdgeStyle;rounded=0;orthogonalLoop=1;jettySize=auto;html=1;entryX=0.5;entryY=0;entryDx=0;entryDy=0;exitX=0.5;exitY=1;exitDx=0;exitDy=0;" edge="1" parent="1" source="5bOKIBlJ_df4a_-p4DKL-35" target="5bOKIBlJ_df4a_-p4DKL-1">
          <mxGeometry relative="1" as="geometry" />
        </mxCell>
        <mxCell id="5bOKIBlJ_df4a_-p4DKL-35" value="Sneakers" style="rounded=0;whiteSpace=wrap;html=1;" vertex="1" parent="1">
          <mxGeometry x="110" y="790" width="120" height="60" as="geometry" />
        </mxCell>
        <mxCell id="5bOKIBlJ_df4a_-p4DKL-60" style="edgeStyle=orthogonalEdgeStyle;rounded=0;orthogonalLoop=1;jettySize=auto;html=1;entryX=0.5;entryY=0;entryDx=0;entryDy=0;" edge="1" parent="1" source="5bOKIBlJ_df4a_-p4DKL-52" target="5bOKIBlJ_df4a_-p4DKL-54">
          <mxGeometry relative="1" as="geometry" />
        </mxCell>
        <mxCell id="5bOKIBlJ_df4a_-p4DKL-52" value="Start" style="ellipse;whiteSpace=wrap;html=1;" vertex="1" parent="1">
          <mxGeometry x="354" y="1180" width="120" height="80" as="geometry" />
        </mxCell>
        <mxCell id="5bOKIBlJ_df4a_-p4DKL-53" value="Practice diagram" style="text;html=1;align=center;verticalAlign=middle;resizable=0;points=[];autosize=1;strokeColor=none;fillColor=none;" vertex="1" parent="1">
          <mxGeometry x="60" width="110" height="30" as="geometry" />
        </mxCell>
        <mxCell id="5bOKIBlJ_df4a_-p4DKL-61" style="edgeStyle=orthogonalEdgeStyle;rounded=0;orthogonalLoop=1;jettySize=auto;html=1;entryX=0.5;entryY=0;entryDx=0;entryDy=0;" edge="1" parent="1" source="5bOKIBlJ_df4a_-p4DKL-54" target="5bOKIBlJ_df4a_-p4DKL-55">
          <mxGeometry relative="1" as="geometry" />
        </mxCell>
        <mxCell id="5bOKIBlJ_df4a_-p4DKL-54" value="Input first side" style="rounded=0;whiteSpace=wrap;html=1;" vertex="1" parent="1">
          <mxGeometry x="354" y="1310" width="120" height="60" as="geometry" />
        </mxCell>
        <mxCell id="5bOKIBlJ_df4a_-p4DKL-69" style="edgeStyle=orthogonalEdgeStyle;rounded=0;orthogonalLoop=1;jettySize=auto;html=1;entryX=0;entryY=0.5;entryDx=0;entryDy=0;" edge="1" parent="1" source="5bOKIBlJ_df4a_-p4DKL-55" target="5bOKIBlJ_df4a_-p4DKL-64">
          <mxGeometry relative="1" as="geometry">
            <Array as="points">
              <mxPoint x="100" y="1470" />
              <mxPoint x="100" y="2080" />
            </Array>
          </mxGeometry>
        </mxCell>
        <mxCell id="5bOKIBlJ_df4a_-p4DKL-71" style="edgeStyle=orthogonalEdgeStyle;rounded=0;orthogonalLoop=1;jettySize=auto;html=1;entryX=0;entryY=0.5;entryDx=0;entryDy=0;" edge="1" parent="1" source="5bOKIBlJ_df4a_-p4DKL-74" target="5bOKIBlJ_df4a_-p4DKL-70">
          <mxGeometry relative="1" as="geometry" />
        </mxCell>
        <mxCell id="5bOKIBlJ_df4a_-p4DKL-55" value="First cube valid?" style="rhombus;whiteSpace=wrap;html=1;" vertex="1" parent="1">
          <mxGeometry x="374" y="1430" width="80" height="80" as="geometry" />
        </mxCell>
        <mxCell id="5bOKIBlJ_df4a_-p4DKL-59" value="End" style="ellipse;whiteSpace=wrap;html=1;" vertex="1" parent="1">
          <mxGeometry x="404" y="2160" width="120" height="80" as="geometry" />
        </mxCell>
        <mxCell id="5bOKIBlJ_df4a_-p4DKL-68" style="edgeStyle=orthogonalEdgeStyle;rounded=0;orthogonalLoop=1;jettySize=auto;html=1;entryX=0.5;entryY=0;entryDx=0;entryDy=0;exitX=0.5;exitY=1;exitDx=0;exitDy=0;" edge="1" parent="1" source="5bOKIBlJ_df4a_-p4DKL-62" target="5bOKIBlJ_df4a_-p4DKL-59">
          <mxGeometry relative="1" as="geometry" />
        </mxCell>
        <mxCell id="5bOKIBlJ_df4a_-p4DKL-62" value="WIN" style="shape=parallelogram;perimeter=parallelogramPerimeter;whiteSpace=wrap;html=1;fixedSize=1;" vertex="1" parent="1">
          <mxGeometry x="640" y="2050" width="120" height="60" as="geometry" />
        </mxCell>
        <mxCell id="5bOKIBlJ_df4a_-p4DKL-67" style="edgeStyle=orthogonalEdgeStyle;rounded=0;orthogonalLoop=1;jettySize=auto;html=1;" edge="1" parent="1" source="5bOKIBlJ_df4a_-p4DKL-63">
          <mxGeometry relative="1" as="geometry">
            <mxPoint x="464" y="2160" as="targetPoint" />
          </mxGeometry>
        </mxCell>
        <mxCell id="5bOKIBlJ_df4a_-p4DKL-63" value="LOSS" style="shape=parallelogram;perimeter=parallelogramPerimeter;whiteSpace=wrap;html=1;fixedSize=1;" vertex="1" parent="1">
          <mxGeometry x="404" y="2050" width="120" height="60" as="geometry" />
        </mxCell>
        <mxCell id="5bOKIBlJ_df4a_-p4DKL-65" style="edgeStyle=orthogonalEdgeStyle;rounded=0;orthogonalLoop=1;jettySize=auto;html=1;entryX=0.5;entryY=0;entryDx=0;entryDy=0;exitX=0.5;exitY=1;exitDx=0;exitDy=0;" edge="1" parent="1" source="5bOKIBlJ_df4a_-p4DKL-64" target="5bOKIBlJ_df4a_-p4DKL-59">
          <mxGeometry relative="1" as="geometry" />
        </mxCell>
        <mxCell id="5bOKIBlJ_df4a_-p4DKL-64" value="ERROR" style="shape=parallelogram;perimeter=parallelogramPerimeter;whiteSpace=wrap;html=1;fixedSize=1;" vertex="1" parent="1">
          <mxGeometry x="170" y="2050" width="120" height="60" as="geometry" />
        </mxCell>
        <mxCell id="5bOKIBlJ_df4a_-p4DKL-82" style="edgeStyle=orthogonalEdgeStyle;rounded=0;orthogonalLoop=1;jettySize=auto;html=1;entryX=0.5;entryY=0;entryDx=0;entryDy=0;exitX=0.5;exitY=1;exitDx=0;exitDy=0;" edge="1" parent="1" source="5bOKIBlJ_df4a_-p4DKL-70" target="5bOKIBlJ_df4a_-p4DKL-79">
          <mxGeometry relative="1" as="geometry" />
        </mxCell>
        <mxCell id="5bOKIBlJ_df4a_-p4DKL-89" style="edgeStyle=orthogonalEdgeStyle;rounded=0;orthogonalLoop=1;jettySize=auto;html=1;entryX=0.5;entryY=0;entryDx=0;entryDy=0;" edge="1" parent="1" source="5bOKIBlJ_df4a_-p4DKL-70" target="5bOKIBlJ_df4a_-p4DKL-80">
          <mxGeometry relative="1" as="geometry">
            <Array as="points">
              <mxPoint x="695" y="1580" />
              <mxPoint x="760" y="1580" />
            </Array>
          </mxGeometry>
        </mxCell>
        <mxCell id="5bOKIBlJ_df4a_-p4DKL-70" value="Set as previous cube" style="rounded=0;whiteSpace=wrap;html=1;" vertex="1" parent="1">
          <mxGeometry x="635" y="1440" width="120" height="60" as="geometry" />
        </mxCell>
        <mxCell id="5bOKIBlJ_df4a_-p4DKL-72" value="No" style="rounded=0;whiteSpace=wrap;html=1;" vertex="1" parent="1">
          <mxGeometry x="200" y="1455" width="50" height="30" as="geometry" />
        </mxCell>
        <mxCell id="5bOKIBlJ_df4a_-p4DKL-74" value="Yes" style="rounded=0;whiteSpace=wrap;html=1;" vertex="1" parent="1">
          <mxGeometry x="510" y="1455" width="50" height="30" as="geometry" />
        </mxCell>
        <mxCell id="5bOKIBlJ_df4a_-p4DKL-84" style="edgeStyle=orthogonalEdgeStyle;rounded=0;orthogonalLoop=1;jettySize=auto;html=1;entryX=0.5;entryY=0;entryDx=0;entryDy=0;" edge="1" parent="1" source="5bOKIBlJ_df4a_-p4DKL-78" target="5bOKIBlJ_df4a_-p4DKL-81">
          <mxGeometry relative="1" as="geometry" />
        </mxCell>
        <mxCell id="5bOKIBlJ_df4a_-p4DKL-78" value="Input next cube side" style="rounded=0;whiteSpace=wrap;html=1;" vertex="1" parent="1">
          <mxGeometry x="490" y="1660" width="120" height="60" as="geometry" />
        </mxCell>
        <mxCell id="5bOKIBlJ_df4a_-p4DKL-83" style="edgeStyle=orthogonalEdgeStyle;rounded=0;orthogonalLoop=1;jettySize=auto;html=1;entryX=0.5;entryY=0;entryDx=0;entryDy=0;" edge="1" parent="1" source="5bOKIBlJ_df4a_-p4DKL-79" target="5bOKIBlJ_df4a_-p4DKL-78">
          <mxGeometry relative="1" as="geometry" />
        </mxCell>
        <mxCell id="5bOKIBlJ_df4a_-p4DKL-79" value="Loop through next cubes" style="rounded=0;whiteSpace=wrap;html=1;" vertex="1" parent="1">
          <mxGeometry x="490" y="1550" width="120" height="60" as="geometry" />
        </mxCell>
        <mxCell id="5bOKIBlJ_df4a_-p4DKL-91" style="edgeStyle=orthogonalEdgeStyle;rounded=0;orthogonalLoop=1;jettySize=auto;html=1;entryX=1;entryY=0.5;entryDx=0;entryDy=0;" edge="1" parent="1" source="5bOKIBlJ_df4a_-p4DKL-92" target="5bOKIBlJ_df4a_-p4DKL-79">
          <mxGeometry relative="1" as="geometry">
            <mxPoint x="760" y="1750" as="sourcePoint" />
          </mxGeometry>
        </mxCell>
        <mxCell id="5bOKIBlJ_df4a_-p4DKL-95" style="edgeStyle=orthogonalEdgeStyle;rounded=0;orthogonalLoop=1;jettySize=auto;html=1;entryX=0.5;entryY=0;entryDx=0;entryDy=0;endArrow=none;endFill=0;" edge="1" parent="1" source="5bOKIBlJ_df4a_-p4DKL-80" target="5bOKIBlJ_df4a_-p4DKL-94">
          <mxGeometry relative="1" as="geometry" />
        </mxCell>
        <mxCell id="5bOKIBlJ_df4a_-p4DKL-80" value="All cubes processed?" style="rhombus;whiteSpace=wrap;html=1;" vertex="1" parent="1">
          <mxGeometry x="720" y="1754" width="80" height="80" as="geometry" />
        </mxCell>
        <mxCell id="5bOKIBlJ_df4a_-p4DKL-85" style="edgeStyle=orthogonalEdgeStyle;rounded=0;orthogonalLoop=1;jettySize=auto;html=1;entryX=0.5;entryY=0;entryDx=0;entryDy=0;exitX=0;exitY=0.5;exitDx=0;exitDy=0;" edge="1" parent="1" source="5bOKIBlJ_df4a_-p4DKL-86" target="5bOKIBlJ_df4a_-p4DKL-64">
          <mxGeometry relative="1" as="geometry" />
        </mxCell>
        <mxCell id="5bOKIBlJ_df4a_-p4DKL-99" style="edgeStyle=orthogonalEdgeStyle;rounded=0;orthogonalLoop=1;jettySize=auto;html=1;entryX=0.5;entryY=0;entryDx=0;entryDy=0;endArrow=none;endFill=0;" edge="1" parent="1" source="5bOKIBlJ_df4a_-p4DKL-81" target="5bOKIBlJ_df4a_-p4DKL-98">
          <mxGeometry relative="1" as="geometry" />
        </mxCell>
        <mxCell id="5bOKIBlJ_df4a_-p4DKL-81" value="Next cube valid?" style="rhombus;whiteSpace=wrap;html=1;" vertex="1" parent="1">
          <mxGeometry x="510" y="1754" width="80" height="80" as="geometry" />
        </mxCell>
        <mxCell id="5bOKIBlJ_df4a_-p4DKL-87" value="" style="edgeStyle=orthogonalEdgeStyle;rounded=0;orthogonalLoop=1;jettySize=auto;html=1;entryX=1;entryY=0.5;entryDx=0;entryDy=0;endArrow=none;endFill=0;" edge="1" parent="1" source="5bOKIBlJ_df4a_-p4DKL-81" target="5bOKIBlJ_df4a_-p4DKL-86">
          <mxGeometry relative="1" as="geometry">
            <mxPoint x="510" y="1794" as="sourcePoint" />
            <mxPoint x="190" y="1970" as="targetPoint" />
          </mxGeometry>
        </mxCell>
        <mxCell id="5bOKIBlJ_df4a_-p4DKL-86" value="No" style="rounded=0;whiteSpace=wrap;html=1;" vertex="1" parent="1">
          <mxGeometry x="330" y="1779" width="50" height="30" as="geometry" />
        </mxCell>
        <mxCell id="5bOKIBlJ_df4a_-p4DKL-105" style="edgeStyle=orthogonalEdgeStyle;rounded=0;orthogonalLoop=1;jettySize=auto;html=1;endArrow=none;endFill=0;" edge="1" parent="1" source="5bOKIBlJ_df4a_-p4DKL-88" target="5bOKIBlJ_df4a_-p4DKL-104">
          <mxGeometry relative="1" as="geometry" />
        </mxCell>
        <mxCell id="5bOKIBlJ_df4a_-p4DKL-107" style="edgeStyle=orthogonalEdgeStyle;rounded=0;orthogonalLoop=1;jettySize=auto;html=1;entryX=0.5;entryY=0;entryDx=0;entryDy=0;endArrow=none;endFill=0;" edge="1" parent="1" source="5bOKIBlJ_df4a_-p4DKL-88" target="5bOKIBlJ_df4a_-p4DKL-101">
          <mxGeometry relative="1" as="geometry" />
        </mxCell>
        <mxCell id="5bOKIBlJ_df4a_-p4DKL-88" value="Compare with previous cube" style="rounded=0;whiteSpace=wrap;html=1;" vertex="1" parent="1">
          <mxGeometry x="430" y="1920" width="120" height="60" as="geometry" />
        </mxCell>
        <mxCell id="5bOKIBlJ_df4a_-p4DKL-93" value="" style="edgeStyle=orthogonalEdgeStyle;rounded=0;orthogonalLoop=1;jettySize=auto;html=1;entryX=0.5;entryY=1;entryDx=0;entryDy=0;exitX=0;exitY=0.5;exitDx=0;exitDy=0;endArrow=none;endFill=0;" edge="1" parent="1" source="5bOKIBlJ_df4a_-p4DKL-80" target="5bOKIBlJ_df4a_-p4DKL-92">
          <mxGeometry relative="1" as="geometry">
            <mxPoint x="760" y="1750" as="sourcePoint" />
            <mxPoint x="610" y="1580" as="targetPoint" />
          </mxGeometry>
        </mxCell>
        <mxCell id="5bOKIBlJ_df4a_-p4DKL-92" value="No" style="rounded=0;whiteSpace=wrap;html=1;" vertex="1" parent="1">
          <mxGeometry x="660" y="1660" width="50" height="30" as="geometry" />
        </mxCell>
        <mxCell id="5bOKIBlJ_df4a_-p4DKL-96" style="edgeStyle=orthogonalEdgeStyle;rounded=0;orthogonalLoop=1;jettySize=auto;html=1;" edge="1" parent="1" source="5bOKIBlJ_df4a_-p4DKL-94" target="5bOKIBlJ_df4a_-p4DKL-62">
          <mxGeometry relative="1" as="geometry" />
        </mxCell>
        <mxCell id="5bOKIBlJ_df4a_-p4DKL-94" value="Yes" style="rounded=0;whiteSpace=wrap;html=1;" vertex="1" parent="1">
          <mxGeometry x="735" y="1870" width="50" height="30" as="geometry" />
        </mxCell>
        <mxCell id="5bOKIBlJ_df4a_-p4DKL-100" style="edgeStyle=orthogonalEdgeStyle;rounded=0;orthogonalLoop=1;jettySize=auto;html=1;entryX=0.5;entryY=0;entryDx=0;entryDy=0;exitX=0;exitY=0.5;exitDx=0;exitDy=0;" edge="1" parent="1" source="5bOKIBlJ_df4a_-p4DKL-98" target="5bOKIBlJ_df4a_-p4DKL-88">
          <mxGeometry relative="1" as="geometry" />
        </mxCell>
        <mxCell id="5bOKIBlJ_df4a_-p4DKL-98" value="Yes" style="rounded=0;whiteSpace=wrap;html=1;" vertex="1" parent="1">
          <mxGeometry x="525" y="1860" width="50" height="30" as="geometry" />
        </mxCell>
        <mxCell id="5bOKIBlJ_df4a_-p4DKL-108" style="edgeStyle=orthogonalEdgeStyle;rounded=0;orthogonalLoop=1;jettySize=auto;html=1;entryX=0;entryY=0.5;entryDx=0;entryDy=0;exitX=0.5;exitY=1;exitDx=0;exitDy=0;" edge="1" parent="1" source="5bOKIBlJ_df4a_-p4DKL-101" target="5bOKIBlJ_df4a_-p4DKL-63">
          <mxGeometry relative="1" as="geometry">
            <Array as="points">
              <mxPoint x="360" y="2080" />
            </Array>
          </mxGeometry>
        </mxCell>
        <mxCell id="5bOKIBlJ_df4a_-p4DKL-101" value="Larger" style="rounded=0;whiteSpace=wrap;html=1;" vertex="1" parent="1">
          <mxGeometry x="330" y="1990" width="60" height="30" as="geometry" />
        </mxCell>
        <mxCell id="5bOKIBlJ_df4a_-p4DKL-106" style="edgeStyle=orthogonalEdgeStyle;rounded=0;orthogonalLoop=1;jettySize=auto;html=1;entryX=1;entryY=0.5;entryDx=0;entryDy=0;exitX=0.5;exitY=0;exitDx=0;exitDy=0;" edge="1" parent="1" source="5bOKIBlJ_df4a_-p4DKL-104" target="5bOKIBlJ_df4a_-p4DKL-70">
          <mxGeometry relative="1" as="geometry" />
        </mxCell>
        <mxCell id="5bOKIBlJ_df4a_-p4DKL-104" value="Smaller/Equal" style="rounded=0;whiteSpace=wrap;html=1;" vertex="1" parent="1">
          <mxGeometry x="800" y="1930" width="90" height="40" as="geometry" />
        </mxCell>
        <mxCell id="5bOKIBlJ_df4a_-p4DKL-109" value="Algotester lab1" style="text;html=1;align=center;verticalAlign=middle;resizable=0;points=[];autosize=1;strokeColor=none;fillColor=none;" vertex="1" parent="1">
          <mxGeometry x="170" y="1169" width="100" height="30" as="geometry" />
        </mxCell>
        <mxCell id="5bOKIBlJ_df4a_-p4DKL-122" style="edgeStyle=orthogonalEdgeStyle;rounded=0;orthogonalLoop=1;jettySize=auto;html=1;entryX=0.5;entryY=0;entryDx=0;entryDy=0;" edge="1" parent="1" source="5bOKIBlJ_df4a_-p4DKL-111" target="5bOKIBlJ_df4a_-p4DKL-115">
          <mxGeometry relative="1" as="geometry" />
        </mxCell>
        <mxCell id="5bOKIBlJ_df4a_-p4DKL-111" value="Start" style="ellipse;whiteSpace=wrap;html=1;" vertex="1" parent="1">
          <mxGeometry x="30" y="2370" width="120" height="80" as="geometry" />
        </mxCell>
        <mxCell id="5bOKIBlJ_df4a_-p4DKL-128" style="edgeStyle=orthogonalEdgeStyle;rounded=0;orthogonalLoop=1;jettySize=auto;html=1;entryX=0.5;entryY=0;entryDx=0;entryDy=0;" edge="1" parent="1" source="5bOKIBlJ_df4a_-p4DKL-114" target="5bOKIBlJ_df4a_-p4DKL-121">
          <mxGeometry relative="1" as="geometry" />
        </mxCell>
        <mxCell id="5bOKIBlJ_df4a_-p4DKL-114" value="Output float" style="shape=parallelogram;perimeter=parallelogramPerimeter;whiteSpace=wrap;html=1;fixedSize=1;" vertex="1" parent="1">
          <mxGeometry x="30" y="3010" width="120" height="60" as="geometry" />
        </mxCell>
        <mxCell id="5bOKIBlJ_df4a_-p4DKL-123" style="edgeStyle=orthogonalEdgeStyle;rounded=0;orthogonalLoop=1;jettySize=auto;html=1;" edge="1" parent="1" source="5bOKIBlJ_df4a_-p4DKL-115" target="5bOKIBlJ_df4a_-p4DKL-120">
          <mxGeometry relative="1" as="geometry" />
        </mxCell>
        <mxCell id="5bOKIBlJ_df4a_-p4DKL-115" value="Initialize float variables" style="rounded=0;whiteSpace=wrap;html=1;" vertex="1" parent="1">
          <mxGeometry x="30" y="2500" width="120" height="60" as="geometry" />
        </mxCell>
        <mxCell id="5bOKIBlJ_df4a_-p4DKL-127" style="edgeStyle=orthogonalEdgeStyle;rounded=0;orthogonalLoop=1;jettySize=auto;html=1;entryX=0.5;entryY=0;entryDx=0;entryDy=0;" edge="1" parent="1" source="5bOKIBlJ_df4a_-p4DKL-117" target="5bOKIBlJ_df4a_-p4DKL-114">
          <mxGeometry relative="1" as="geometry" />
        </mxCell>
        <mxCell id="5bOKIBlJ_df4a_-p4DKL-117" value="Compute result_f" style="rounded=0;whiteSpace=wrap;html=1;" vertex="1" parent="1">
          <mxGeometry x="30" y="2910" width="120" height="60" as="geometry" />
        </mxCell>
        <mxCell id="5bOKIBlJ_df4a_-p4DKL-126" style="edgeStyle=orthogonalEdgeStyle;rounded=0;orthogonalLoop=1;jettySize=auto;html=1;entryX=0.5;entryY=0;entryDx=0;entryDy=0;" edge="1" parent="1" source="5bOKIBlJ_df4a_-p4DKL-118" target="5bOKIBlJ_df4a_-p4DKL-117">
          <mxGeometry relative="1" as="geometry" />
        </mxCell>
        <mxCell id="5bOKIBlJ_df4a_-p4DKL-118" value="Calculate denom_f" style="rounded=0;whiteSpace=wrap;html=1;" vertex="1" parent="1">
          <mxGeometry x="30" y="2810" width="120" height="60" as="geometry" />
        </mxCell>
        <mxCell id="5bOKIBlJ_df4a_-p4DKL-125" style="edgeStyle=orthogonalEdgeStyle;rounded=0;orthogonalLoop=1;jettySize=auto;html=1;entryX=0.5;entryY=0;entryDx=0;entryDy=0;" edge="1" parent="1" source="5bOKIBlJ_df4a_-p4DKL-119" target="5bOKIBlJ_df4a_-p4DKL-118">
          <mxGeometry relative="1" as="geometry" />
        </mxCell>
        <mxCell id="5bOKIBlJ_df4a_-p4DKL-119" value="Calculate num_f2" style="rounded=0;whiteSpace=wrap;html=1;" vertex="1" parent="1">
          <mxGeometry x="30" y="2710" width="120" height="60" as="geometry" />
        </mxCell>
        <mxCell id="5bOKIBlJ_df4a_-p4DKL-124" style="edgeStyle=orthogonalEdgeStyle;rounded=0;orthogonalLoop=1;jettySize=auto;html=1;entryX=0.5;entryY=0;entryDx=0;entryDy=0;" edge="1" parent="1" source="5bOKIBlJ_df4a_-p4DKL-120" target="5bOKIBlJ_df4a_-p4DKL-119">
          <mxGeometry relative="1" as="geometry" />
        </mxCell>
        <mxCell id="5bOKIBlJ_df4a_-p4DKL-120" value="Calculate num_f1" style="rounded=0;whiteSpace=wrap;html=1;" vertex="1" parent="1">
          <mxGeometry x="30" y="2610" width="120" height="60" as="geometry" />
        </mxCell>
        <mxCell id="5bOKIBlJ_df4a_-p4DKL-121" value="End" style="ellipse;whiteSpace=wrap;html=1;" vertex="1" parent="1">
          <mxGeometry x="30" y="3100" width="120" height="80" as="geometry" />
        </mxCell>
        <mxCell id="5bOKIBlJ_df4a_-p4DKL-129" style="edgeStyle=orthogonalEdgeStyle;rounded=0;orthogonalLoop=1;jettySize=auto;html=1;entryX=0.5;entryY=0;entryDx=0;entryDy=0;" edge="1" parent="1" source="5bOKIBlJ_df4a_-p4DKL-130" target="5bOKIBlJ_df4a_-p4DKL-134">
          <mxGeometry relative="1" as="geometry" />
        </mxCell>
        <mxCell id="5bOKIBlJ_df4a_-p4DKL-130" value="Start" style="ellipse;whiteSpace=wrap;html=1;" vertex="1" parent="1">
          <mxGeometry x="300" y="2370" width="120" height="80" as="geometry" />
        </mxCell>
        <mxCell id="5bOKIBlJ_df4a_-p4DKL-131" style="edgeStyle=orthogonalEdgeStyle;rounded=0;orthogonalLoop=1;jettySize=auto;html=1;entryX=0.5;entryY=0;entryDx=0;entryDy=0;" edge="1" parent="1" source="5bOKIBlJ_df4a_-p4DKL-132" target="5bOKIBlJ_df4a_-p4DKL-143">
          <mxGeometry relative="1" as="geometry" />
        </mxCell>
        <mxCell id="5bOKIBlJ_df4a_-p4DKL-132" value="Output double" style="shape=parallelogram;perimeter=parallelogramPerimeter;whiteSpace=wrap;html=1;fixedSize=1;" vertex="1" parent="1">
          <mxGeometry x="300" y="3010" width="120" height="60" as="geometry" />
        </mxCell>
        <mxCell id="5bOKIBlJ_df4a_-p4DKL-133" style="edgeStyle=orthogonalEdgeStyle;rounded=0;orthogonalLoop=1;jettySize=auto;html=1;" edge="1" parent="1" source="5bOKIBlJ_df4a_-p4DKL-134" target="5bOKIBlJ_df4a_-p4DKL-142">
          <mxGeometry relative="1" as="geometry" />
        </mxCell>
        <mxCell id="5bOKIBlJ_df4a_-p4DKL-134" value="Initialize double variables" style="rounded=0;whiteSpace=wrap;html=1;" vertex="1" parent="1">
          <mxGeometry x="300" y="2500" width="120" height="60" as="geometry" />
        </mxCell>
        <mxCell id="5bOKIBlJ_df4a_-p4DKL-135" style="edgeStyle=orthogonalEdgeStyle;rounded=0;orthogonalLoop=1;jettySize=auto;html=1;entryX=0.5;entryY=0;entryDx=0;entryDy=0;" edge="1" parent="1" source="5bOKIBlJ_df4a_-p4DKL-136" target="5bOKIBlJ_df4a_-p4DKL-132">
          <mxGeometry relative="1" as="geometry" />
        </mxCell>
        <mxCell id="5bOKIBlJ_df4a_-p4DKL-136" value="Compute result_d" style="rounded=0;whiteSpace=wrap;html=1;" vertex="1" parent="1">
          <mxGeometry x="300" y="2910" width="120" height="60" as="geometry" />
        </mxCell>
        <mxCell id="5bOKIBlJ_df4a_-p4DKL-137" style="edgeStyle=orthogonalEdgeStyle;rounded=0;orthogonalLoop=1;jettySize=auto;html=1;entryX=0.5;entryY=0;entryDx=0;entryDy=0;" edge="1" parent="1" source="5bOKIBlJ_df4a_-p4DKL-138" target="5bOKIBlJ_df4a_-p4DKL-136">
          <mxGeometry relative="1" as="geometry" />
        </mxCell>
        <mxCell id="5bOKIBlJ_df4a_-p4DKL-138" value="Calculate denom_d" style="rounded=0;whiteSpace=wrap;html=1;" vertex="1" parent="1">
          <mxGeometry x="300" y="2810" width="120" height="60" as="geometry" />
        </mxCell>
        <mxCell id="5bOKIBlJ_df4a_-p4DKL-139" style="edgeStyle=orthogonalEdgeStyle;rounded=0;orthogonalLoop=1;jettySize=auto;html=1;entryX=0.5;entryY=0;entryDx=0;entryDy=0;" edge="1" parent="1" source="5bOKIBlJ_df4a_-p4DKL-140" target="5bOKIBlJ_df4a_-p4DKL-138">
          <mxGeometry relative="1" as="geometry" />
        </mxCell>
        <mxCell id="5bOKIBlJ_df4a_-p4DKL-140" value="Calculate num_d2" style="rounded=0;whiteSpace=wrap;html=1;" vertex="1" parent="1">
          <mxGeometry x="300" y="2710" width="120" height="60" as="geometry" />
        </mxCell>
        <mxCell id="5bOKIBlJ_df4a_-p4DKL-141" style="edgeStyle=orthogonalEdgeStyle;rounded=0;orthogonalLoop=1;jettySize=auto;html=1;entryX=0.5;entryY=0;entryDx=0;entryDy=0;" edge="1" parent="1" source="5bOKIBlJ_df4a_-p4DKL-142" target="5bOKIBlJ_df4a_-p4DKL-140">
          <mxGeometry relative="1" as="geometry" />
        </mxCell>
        <mxCell id="5bOKIBlJ_df4a_-p4DKL-142" value="Calculate num_d1" style="rounded=0;whiteSpace=wrap;html=1;" vertex="1" parent="1">
          <mxGeometry x="300" y="2610" width="120" height="60" as="geometry" />
        </mxCell>
        <mxCell id="5bOKIBlJ_df4a_-p4DKL-143" value="End" style="ellipse;whiteSpace=wrap;html=1;" vertex="1" parent="1">
          <mxGeometry x="300" y="3100" width="120" height="80" as="geometry" />
        </mxCell>
        <mxCell id="5bOKIBlJ_df4a_-p4DKL-144" value="VNS lab 1" style="text;html=1;align=center;verticalAlign=middle;resizable=0;points=[];autosize=1;strokeColor=none;fillColor=none;" vertex="1" parent="1">
          <mxGeometry x="190" y="2338" width="80" height="30" as="geometry" />
        </mxCell>
        <mxCell id="5bOKIBlJ_df4a_-p4DKL-145" value="VNS lab 2" style="text;html=1;align=center;verticalAlign=middle;resizable=0;points=[];autosize=1;strokeColor=none;fillColor=none;" vertex="1" parent="1">
          <mxGeometry x="1295" y="2300" width="80" height="30" as="geometry" />
        </mxCell>
        <mxCell id="5bOKIBlJ_df4a_-p4DKL-149" style="edgeStyle=orthogonalEdgeStyle;rounded=0;orthogonalLoop=1;jettySize=auto;html=1;entryX=0.5;entryY=0;entryDx=0;entryDy=0;" edge="1" parent="1" source="5bOKIBlJ_df4a_-p4DKL-146" target="5bOKIBlJ_df4a_-p4DKL-148">
          <mxGeometry relative="1" as="geometry" />
        </mxCell>
        <mxCell id="5bOKIBlJ_df4a_-p4DKL-146" value="Start" style="ellipse;whiteSpace=wrap;html=1;" vertex="1" parent="1">
          <mxGeometry x="1060" y="2340" width="120" height="80" as="geometry" />
        </mxCell>
        <mxCell id="5bOKIBlJ_df4a_-p4DKL-147" value="End" style="ellipse;whiteSpace=wrap;html=1;" vertex="1" parent="1">
          <mxGeometry x="1255" y="2830" width="120" height="80" as="geometry" />
        </mxCell>
        <mxCell id="5bOKIBlJ_df4a_-p4DKL-156" style="edgeStyle=orthogonalEdgeStyle;rounded=0;orthogonalLoop=1;jettySize=auto;html=1;entryX=1;entryY=0.5;entryDx=0;entryDy=0;" edge="1" parent="1" source="5bOKIBlJ_df4a_-p4DKL-148" target="5bOKIBlJ_df4a_-p4DKL-155">
          <mxGeometry relative="1" as="geometry" />
        </mxCell>
        <mxCell id="5bOKIBlJ_df4a_-p4DKL-148" value="Initialize variable" style="rounded=0;whiteSpace=wrap;html=1;" vertex="1" parent="1">
          <mxGeometry x="1060" y="2470" width="120" height="60" as="geometry" />
        </mxCell>
        <mxCell id="5bOKIBlJ_df4a_-p4DKL-161" style="edgeStyle=orthogonalEdgeStyle;rounded=0;orthogonalLoop=1;jettySize=auto;html=1;entryX=0.5;entryY=0;entryDx=0;entryDy=0;" edge="1" parent="1" source="5bOKIBlJ_df4a_-p4DKL-152" target="5bOKIBlJ_df4a_-p4DKL-160">
          <mxGeometry relative="1" as="geometry" />
        </mxCell>
        <mxCell id="5bOKIBlJ_df4a_-p4DKL-152" value="Operation 1" style="rounded=0;whiteSpace=wrap;html=1;" vertex="1" parent="1">
          <mxGeometry x="900" y="2590" width="120" height="60" as="geometry" />
        </mxCell>
        <mxCell id="5bOKIBlJ_df4a_-p4DKL-157" style="edgeStyle=orthogonalEdgeStyle;rounded=0;orthogonalLoop=1;jettySize=auto;html=1;entryX=0.5;entryY=0;entryDx=0;entryDy=0;" edge="1" parent="1" source="5bOKIBlJ_df4a_-p4DKL-155" target="5bOKIBlJ_df4a_-p4DKL-152">
          <mxGeometry relative="1" as="geometry" />
        </mxCell>
        <mxCell id="5bOKIBlJ_df4a_-p4DKL-155" value="m+--n" style="rhombus;whiteSpace=wrap;html=1;" vertex="1" parent="1">
          <mxGeometry x="920" y="2460" width="80" height="80" as="geometry" />
        </mxCell>
        <mxCell id="5bOKIBlJ_df4a_-p4DKL-165" style="edgeStyle=orthogonalEdgeStyle;rounded=0;orthogonalLoop=1;jettySize=auto;html=1;entryX=0.5;entryY=0;entryDx=0;entryDy=0;" edge="1" parent="1" source="5bOKIBlJ_df4a_-p4DKL-158" target="5bOKIBlJ_df4a_-p4DKL-164">
          <mxGeometry relative="1" as="geometry" />
        </mxCell>
        <mxCell id="5bOKIBlJ_df4a_-p4DKL-158" value="Reset variables" style="rounded=0;whiteSpace=wrap;html=1;" vertex="1" parent="1">
          <mxGeometry x="900" y="2893" width="120" height="60" as="geometry" />
        </mxCell>
        <mxCell id="5bOKIBlJ_df4a_-p4DKL-163" style="edgeStyle=orthogonalEdgeStyle;rounded=0;orthogonalLoop=1;jettySize=auto;html=1;entryX=0.5;entryY=0;entryDx=0;entryDy=0;" edge="1" parent="1" source="5bOKIBlJ_df4a_-p4DKL-159" target="5bOKIBlJ_df4a_-p4DKL-158">
          <mxGeometry relative="1" as="geometry" />
        </mxCell>
        <mxCell id="5bOKIBlJ_df4a_-p4DKL-159" value="Print result 1" style="rounded=0;whiteSpace=wrap;html=1;" vertex="1" parent="1">
          <mxGeometry x="900" y="2790" width="120" height="60" as="geometry" />
        </mxCell>
        <mxCell id="5bOKIBlJ_df4a_-p4DKL-162" style="edgeStyle=orthogonalEdgeStyle;rounded=0;orthogonalLoop=1;jettySize=auto;html=1;entryX=0.5;entryY=0;entryDx=0;entryDy=0;" edge="1" parent="1" source="5bOKIBlJ_df4a_-p4DKL-160" target="5bOKIBlJ_df4a_-p4DKL-159">
          <mxGeometry relative="1" as="geometry" />
        </mxCell>
        <mxCell id="5bOKIBlJ_df4a_-p4DKL-160" value="Calculate result 1" style="rounded=0;whiteSpace=wrap;html=1;" vertex="1" parent="1">
          <mxGeometry x="900" y="2690" width="120" height="60" as="geometry" />
        </mxCell>
        <mxCell id="5bOKIBlJ_df4a_-p4DKL-174" style="edgeStyle=orthogonalEdgeStyle;rounded=0;orthogonalLoop=1;jettySize=auto;html=1;entryX=0.5;entryY=0;entryDx=0;entryDy=0;" edge="1" parent="1" source="5bOKIBlJ_df4a_-p4DKL-164" target="5bOKIBlJ_df4a_-p4DKL-166">
          <mxGeometry relative="1" as="geometry" />
        </mxCell>
        <mxCell id="5bOKIBlJ_df4a_-p4DKL-164" value="m++&amp;lt;++n" style="rhombus;whiteSpace=wrap;html=1;" vertex="1" parent="1">
          <mxGeometry x="920" y="3000" width="80" height="80" as="geometry" />
        </mxCell>
        <mxCell id="5bOKIBlJ_df4a_-p4DKL-175" style="edgeStyle=orthogonalEdgeStyle;rounded=0;orthogonalLoop=1;jettySize=auto;html=1;" edge="1" parent="1" source="5bOKIBlJ_df4a_-p4DKL-166" target="5bOKIBlJ_df4a_-p4DKL-168">
          <mxGeometry relative="1" as="geometry" />
        </mxCell>
        <mxCell id="5bOKIBlJ_df4a_-p4DKL-166" value="Operation 2" style="rounded=0;whiteSpace=wrap;html=1;" vertex="1" parent="1">
          <mxGeometry x="900" y="3130" width="120" height="60" as="geometry" />
        </mxCell>
        <mxCell id="5bOKIBlJ_df4a_-p4DKL-176" style="edgeStyle=orthogonalEdgeStyle;rounded=0;orthogonalLoop=1;jettySize=auto;html=1;entryX=0.5;entryY=1;entryDx=0;entryDy=0;" edge="1" parent="1" source="5bOKIBlJ_df4a_-p4DKL-168" target="5bOKIBlJ_df4a_-p4DKL-173">
          <mxGeometry relative="1" as="geometry" />
        </mxCell>
        <mxCell id="5bOKIBlJ_df4a_-p4DKL-168" value="++n" style="rounded=0;whiteSpace=wrap;html=1;" vertex="1" parent="1">
          <mxGeometry x="1070" y="3130" width="120" height="60" as="geometry" />
        </mxCell>
        <mxCell id="5bOKIBlJ_df4a_-p4DKL-182" style="edgeStyle=orthogonalEdgeStyle;rounded=0;orthogonalLoop=1;jettySize=auto;html=1;entryX=0.5;entryY=1;entryDx=0;entryDy=0;" edge="1" parent="1" source="5bOKIBlJ_df4a_-p4DKL-169" target="5bOKIBlJ_df4a_-p4DKL-179">
          <mxGeometry relative="1" as="geometry" />
        </mxCell>
        <mxCell id="5bOKIBlJ_df4a_-p4DKL-169" value="Reset variables" style="rounded=0;whiteSpace=wrap;html=1;" vertex="1" parent="1">
          <mxGeometry x="1070" y="2820" width="120" height="60" as="geometry" />
        </mxCell>
        <mxCell id="5bOKIBlJ_df4a_-p4DKL-178" style="edgeStyle=orthogonalEdgeStyle;rounded=0;orthogonalLoop=1;jettySize=auto;html=1;exitX=0.5;exitY=0;exitDx=0;exitDy=0;entryX=0.5;entryY=1;entryDx=0;entryDy=0;" edge="1" parent="1" source="5bOKIBlJ_df4a_-p4DKL-171" target="5bOKIBlJ_df4a_-p4DKL-169">
          <mxGeometry relative="1" as="geometry" />
        </mxCell>
        <mxCell id="5bOKIBlJ_df4a_-p4DKL-171" value="Print result 2" style="rounded=0;whiteSpace=wrap;html=1;" vertex="1" parent="1">
          <mxGeometry x="1070" y="2923" width="120" height="60" as="geometry" />
        </mxCell>
        <mxCell id="5bOKIBlJ_df4a_-p4DKL-177" style="edgeStyle=orthogonalEdgeStyle;rounded=0;orthogonalLoop=1;jettySize=auto;html=1;entryX=0.5;entryY=1;entryDx=0;entryDy=0;" edge="1" parent="1" source="5bOKIBlJ_df4a_-p4DKL-173" target="5bOKIBlJ_df4a_-p4DKL-171">
          <mxGeometry relative="1" as="geometry" />
        </mxCell>
        <mxCell id="5bOKIBlJ_df4a_-p4DKL-173" value="Calculate result 2" style="rounded=0;whiteSpace=wrap;html=1;" vertex="1" parent="1">
          <mxGeometry x="1070" y="3030" width="120" height="60" as="geometry" />
        </mxCell>
        <mxCell id="5bOKIBlJ_df4a_-p4DKL-187" style="edgeStyle=orthogonalEdgeStyle;rounded=0;orthogonalLoop=1;jettySize=auto;html=1;entryX=0.5;entryY=1;entryDx=0;entryDy=0;" edge="1" parent="1" source="5bOKIBlJ_df4a_-p4DKL-179" target="5bOKIBlJ_df4a_-p4DKL-186">
          <mxGeometry relative="1" as="geometry" />
        </mxCell>
        <mxCell id="5bOKIBlJ_df4a_-p4DKL-179" value="n--&amp;lt;--m" style="rhombus;whiteSpace=wrap;html=1;" vertex="1" parent="1">
          <mxGeometry x="1090" y="2700" width="80" height="80" as="geometry" />
        </mxCell>
        <mxCell id="5bOKIBlJ_df4a_-p4DKL-185" style="edgeStyle=orthogonalEdgeStyle;rounded=0;orthogonalLoop=1;jettySize=auto;html=1;entryX=0.5;entryY=0;entryDx=0;entryDy=0;" edge="1" parent="1" source="5bOKIBlJ_df4a_-p4DKL-180" target="5bOKIBlJ_df4a_-p4DKL-147">
          <mxGeometry relative="1" as="geometry" />
        </mxCell>
        <mxCell id="5bOKIBlJ_df4a_-p4DKL-180" value="Print result 2" style="rounded=0;whiteSpace=wrap;html=1;" vertex="1" parent="1">
          <mxGeometry x="1255" y="2710" width="120" height="60" as="geometry" />
        </mxCell>
        <mxCell id="5bOKIBlJ_df4a_-p4DKL-184" style="edgeStyle=orthogonalEdgeStyle;rounded=0;orthogonalLoop=1;jettySize=auto;html=1;entryX=0.5;entryY=0;entryDx=0;entryDy=0;" edge="1" parent="1" source="5bOKIBlJ_df4a_-p4DKL-181" target="5bOKIBlJ_df4a_-p4DKL-180">
          <mxGeometry relative="1" as="geometry" />
        </mxCell>
        <mxCell id="5bOKIBlJ_df4a_-p4DKL-181" value="Calculate result 2" style="rounded=0;whiteSpace=wrap;html=1;" vertex="1" parent="1">
          <mxGeometry x="1255" y="2590" width="120" height="60" as="geometry" />
        </mxCell>
        <mxCell id="5bOKIBlJ_df4a_-p4DKL-188" style="edgeStyle=orthogonalEdgeStyle;rounded=0;orthogonalLoop=1;jettySize=auto;html=1;entryX=0;entryY=0.5;entryDx=0;entryDy=0;" edge="1" parent="1" source="5bOKIBlJ_df4a_-p4DKL-186" target="5bOKIBlJ_df4a_-p4DKL-181">
          <mxGeometry relative="1" as="geometry" />
        </mxCell>
        <mxCell id="5bOKIBlJ_df4a_-p4DKL-186" value="Operation 3" style="rounded=0;whiteSpace=wrap;html=1;" vertex="1" parent="1">
          <mxGeometry x="1070" y="2590" width="120" height="60" as="geometry" />
        </mxCell>
        <mxCell id="5bOKIBlJ_df4a_-p4DKL-192" style="edgeStyle=orthogonalEdgeStyle;rounded=0;orthogonalLoop=1;jettySize=auto;html=1;entryX=0.5;entryY=0;entryDx=0;entryDy=0;" edge="1" parent="1" source="5bOKIBlJ_df4a_-p4DKL-189" target="5bOKIBlJ_df4a_-p4DKL-191">
          <mxGeometry relative="1" as="geometry" />
        </mxCell>
        <mxCell id="5bOKIBlJ_df4a_-p4DKL-189" value="Start" style="ellipse;whiteSpace=wrap;html=1;" vertex="1" parent="1">
          <mxGeometry x="200" y="3530" width="120" height="80" as="geometry" />
        </mxCell>
        <mxCell id="5bOKIBlJ_df4a_-p4DKL-190" value="End" style="ellipse;whiteSpace=wrap;html=1;" vertex="1" parent="1">
          <mxGeometry x="460" y="4510" width="120" height="80" as="geometry" />
        </mxCell>
        <mxCell id="5bOKIBlJ_df4a_-p4DKL-197" style="edgeStyle=orthogonalEdgeStyle;rounded=0;orthogonalLoop=1;jettySize=auto;html=1;entryX=0.5;entryY=0;entryDx=0;entryDy=0;" edge="1" parent="1" source="5bOKIBlJ_df4a_-p4DKL-191" target="5bOKIBlJ_df4a_-p4DKL-193">
          <mxGeometry relative="1" as="geometry" />
        </mxCell>
        <mxCell id="5bOKIBlJ_df4a_-p4DKL-191" value="Input n, t" style="rounded=0;whiteSpace=wrap;html=1;" vertex="1" parent="1">
          <mxGeometry x="200" y="3650" width="120" height="60" as="geometry" />
        </mxCell>
        <mxCell id="5bOKIBlJ_df4a_-p4DKL-193" value="Check n range" style="rhombus;whiteSpace=wrap;html=1;" vertex="1" parent="1">
          <mxGeometry x="220" y="3760" width="80" height="80" as="geometry" />
        </mxCell>
        <mxCell id="5bOKIBlJ_df4a_-p4DKL-194" value="Invalid n" style="ellipse;whiteSpace=wrap;html=1;" vertex="1" parent="1">
          <mxGeometry x="10" y="3860" width="120" height="80" as="geometry" />
        </mxCell>
        <mxCell id="5bOKIBlJ_df4a_-p4DKL-206" style="edgeStyle=orthogonalEdgeStyle;rounded=0;orthogonalLoop=1;jettySize=auto;html=1;entryX=0.5;entryY=0;entryDx=0;entryDy=0;" edge="1" parent="1" source="5bOKIBlJ_df4a_-p4DKL-195" target="5bOKIBlJ_df4a_-p4DKL-201">
          <mxGeometry relative="1" as="geometry" />
        </mxCell>
        <mxCell id="5bOKIBlJ_df4a_-p4DKL-195" value="Yes" style="rounded=0;whiteSpace=wrap;html=1;" vertex="1" parent="1">
          <mxGeometry x="370" y="3785" width="60" height="30" as="geometry" />
        </mxCell>
        <mxCell id="5bOKIBlJ_df4a_-p4DKL-200" style="edgeStyle=orthogonalEdgeStyle;rounded=0;orthogonalLoop=1;jettySize=auto;html=1;entryX=0.5;entryY=0;entryDx=0;entryDy=0;exitX=0;exitY=0.5;exitDx=0;exitDy=0;" edge="1" parent="1" source="5bOKIBlJ_df4a_-p4DKL-196" target="5bOKIBlJ_df4a_-p4DKL-194">
          <mxGeometry relative="1" as="geometry" />
        </mxCell>
        <mxCell id="5bOKIBlJ_df4a_-p4DKL-196" value="No" style="rounded=0;whiteSpace=wrap;html=1;" vertex="1" parent="1">
          <mxGeometry x="100" y="3785" width="60" height="30" as="geometry" />
        </mxCell>
        <mxCell id="5bOKIBlJ_df4a_-p4DKL-204" style="edgeStyle=orthogonalEdgeStyle;rounded=0;orthogonalLoop=1;jettySize=auto;html=1;entryX=0.5;entryY=0;entryDx=0;entryDy=0;" edge="1" parent="1" source="5bOKIBlJ_df4a_-p4DKL-201" target="5bOKIBlJ_df4a_-p4DKL-203">
          <mxGeometry relative="1" as="geometry" />
        </mxCell>
        <mxCell id="5bOKIBlJ_df4a_-p4DKL-201" value="Input first floor" style="rounded=0;whiteSpace=wrap;html=1;" vertex="1" parent="1">
          <mxGeometry x="340" y="3860" width="120" height="60" as="geometry" />
        </mxCell>
        <mxCell id="5bOKIBlJ_df4a_-p4DKL-238" style="edgeStyle=orthogonalEdgeStyle;rounded=0;orthogonalLoop=1;jettySize=auto;html=1;entryX=0.5;entryY=0;entryDx=0;entryDy=0;" edge="1" parent="1" source="5bOKIBlJ_df4a_-p4DKL-202" target="5bOKIBlJ_df4a_-p4DKL-213">
          <mxGeometry relative="1" as="geometry" />
        </mxCell>
        <mxCell id="5bOKIBlJ_df4a_-p4DKL-202" value="Initialize total_time &lt;br&gt;to 0" style="rounded=0;whiteSpace=wrap;html=1;" vertex="1" parent="1">
          <mxGeometry x="460" y="4080" width="120" height="60" as="geometry" />
        </mxCell>
        <mxCell id="5bOKIBlJ_df4a_-p4DKL-203" value="Check t &lt;br&gt;range" style="rhombus;whiteSpace=wrap;html=1;" vertex="1" parent="1">
          <mxGeometry x="360" y="3970" width="80" height="80" as="geometry" />
        </mxCell>
        <mxCell id="5bOKIBlJ_df4a_-p4DKL-211" style="edgeStyle=orthogonalEdgeStyle;rounded=0;orthogonalLoop=1;jettySize=auto;html=1;entryX=0.5;entryY=0;entryDx=0;entryDy=0;" edge="1" parent="1" source="5bOKIBlJ_df4a_-p4DKL-205" target="5bOKIBlJ_df4a_-p4DKL-210">
          <mxGeometry relative="1" as="geometry" />
        </mxCell>
        <mxCell id="5bOKIBlJ_df4a_-p4DKL-205" value="No" style="rounded=0;whiteSpace=wrap;html=1;" vertex="1" parent="1">
          <mxGeometry x="260" y="3995" width="60" height="30" as="geometry" />
        </mxCell>
        <mxCell id="5bOKIBlJ_df4a_-p4DKL-212" style="edgeStyle=orthogonalEdgeStyle;rounded=0;orthogonalLoop=1;jettySize=auto;html=1;entryX=0.5;entryY=0;entryDx=0;entryDy=0;" edge="1" parent="1" source="5bOKIBlJ_df4a_-p4DKL-207" target="5bOKIBlJ_df4a_-p4DKL-202">
          <mxGeometry relative="1" as="geometry" />
        </mxCell>
        <mxCell id="5bOKIBlJ_df4a_-p4DKL-207" value="Yes" style="rounded=0;whiteSpace=wrap;html=1;" vertex="1" parent="1">
          <mxGeometry x="490" y="3995" width="60" height="30" as="geometry" />
        </mxCell>
        <mxCell id="5bOKIBlJ_df4a_-p4DKL-210" value="Invalid t" style="ellipse;whiteSpace=wrap;html=1;" vertex="1" parent="1">
          <mxGeometry x="100" y="4040" width="120" height="80" as="geometry" />
        </mxCell>
        <mxCell id="5bOKIBlJ_df4a_-p4DKL-217" style="edgeStyle=orthogonalEdgeStyle;rounded=0;orthogonalLoop=1;jettySize=auto;html=1;entryX=1;entryY=0.5;entryDx=0;entryDy=0;" edge="1" parent="1" source="5bOKIBlJ_df4a_-p4DKL-224" target="5bOKIBlJ_df4a_-p4DKL-216">
          <mxGeometry relative="1" as="geometry" />
        </mxCell>
        <mxCell id="5bOKIBlJ_df4a_-p4DKL-221" style="edgeStyle=orthogonalEdgeStyle;rounded=0;orthogonalLoop=1;jettySize=auto;html=1;exitX=0.5;exitY=1;exitDx=0;exitDy=0;entryX=0.5;entryY=0;entryDx=0;entryDy=0;" edge="1" parent="1" source="5bOKIBlJ_df4a_-p4DKL-223" target="5bOKIBlJ_df4a_-p4DKL-220">
          <mxGeometry relative="1" as="geometry" />
        </mxCell>
        <mxCell id="5bOKIBlJ_df4a_-p4DKL-213" value="Loop through floors" style="rhombus;whiteSpace=wrap;html=1;" vertex="1" parent="1">
          <mxGeometry x="480" y="4180" width="80" height="80" as="geometry" />
        </mxCell>
        <mxCell id="5bOKIBlJ_df4a_-p4DKL-236" style="edgeStyle=orthogonalEdgeStyle;rounded=0;orthogonalLoop=1;jettySize=auto;html=1;entryX=0.5;entryY=0;entryDx=0;entryDy=0;" edge="1" parent="1" source="5bOKIBlJ_df4a_-p4DKL-214" target="5bOKIBlJ_df4a_-p4DKL-235">
          <mxGeometry relative="1" as="geometry" />
        </mxCell>
        <mxCell id="5bOKIBlJ_df4a_-p4DKL-214" value="Update total_time" style="rounded=0;whiteSpace=wrap;html=1;" vertex="1" parent="1">
          <mxGeometry x="180" y="4390" width="120" height="60" as="geometry" />
        </mxCell>
        <mxCell id="5bOKIBlJ_df4a_-p4DKL-219" style="edgeStyle=orthogonalEdgeStyle;rounded=0;orthogonalLoop=1;jettySize=auto;html=1;exitX=0.5;exitY=1;exitDx=0;exitDy=0;entryX=0.5;entryY=0;entryDx=0;entryDy=0;" edge="1" parent="1" source="5bOKIBlJ_df4a_-p4DKL-215" target="5bOKIBlJ_df4a_-p4DKL-214">
          <mxGeometry relative="1" as="geometry" />
        </mxCell>
        <mxCell id="5bOKIBlJ_df4a_-p4DKL-215" value="Calculate time" style="rounded=0;whiteSpace=wrap;html=1;" vertex="1" parent="1">
          <mxGeometry x="180" y="4290" width="120" height="60" as="geometry" />
        </mxCell>
        <mxCell id="5bOKIBlJ_df4a_-p4DKL-218" style="edgeStyle=orthogonalEdgeStyle;rounded=0;orthogonalLoop=1;jettySize=auto;html=1;entryX=0.5;entryY=0;entryDx=0;entryDy=0;" edge="1" parent="1" source="5bOKIBlJ_df4a_-p4DKL-216" target="5bOKIBlJ_df4a_-p4DKL-215">
          <mxGeometry relative="1" as="geometry" />
        </mxCell>
        <mxCell id="5bOKIBlJ_df4a_-p4DKL-216" value="Input current floor" style="rounded=0;whiteSpace=wrap;html=1;" vertex="1" parent="1">
          <mxGeometry x="180" y="4190" width="120" height="60" as="geometry" />
        </mxCell>
        <mxCell id="5bOKIBlJ_df4a_-p4DKL-234" style="edgeStyle=orthogonalEdgeStyle;rounded=0;orthogonalLoop=1;jettySize=auto;html=1;" edge="1" parent="1" source="5bOKIBlJ_df4a_-p4DKL-220" target="5bOKIBlJ_df4a_-p4DKL-190">
          <mxGeometry relative="1" as="geometry" />
        </mxCell>
        <mxCell id="5bOKIBlJ_df4a_-p4DKL-220" value="Output total_time" style="shape=parallelogram;perimeter=parallelogramPerimeter;whiteSpace=wrap;html=1;fixedSize=1;" vertex="1" parent="1">
          <mxGeometry x="460" y="4390" width="120" height="60" as="geometry" />
        </mxCell>
        <mxCell id="5bOKIBlJ_df4a_-p4DKL-224" value="Yes" style="rounded=0;whiteSpace=wrap;html=1;" vertex="1" parent="1">
          <mxGeometry x="360" y="4205" width="60" height="30" as="geometry" />
        </mxCell>
        <mxCell id="5bOKIBlJ_df4a_-p4DKL-226" value="" style="endArrow=none;html=1;rounded=0;entryX=0;entryY=0.5;entryDx=0;entryDy=0;exitX=1;exitY=0.5;exitDx=0;exitDy=0;" edge="1" parent="1" source="5bOKIBlJ_df4a_-p4DKL-224" target="5bOKIBlJ_df4a_-p4DKL-213">
          <mxGeometry width="50" height="50" relative="1" as="geometry">
            <mxPoint x="370" y="4310" as="sourcePoint" />
            <mxPoint x="420" y="4260" as="targetPoint" />
          </mxGeometry>
        </mxCell>
        <mxCell id="5bOKIBlJ_df4a_-p4DKL-227" value="" style="endArrow=none;html=1;rounded=0;exitX=1;exitY=0.5;exitDx=0;exitDy=0;entryX=0;entryY=0.5;entryDx=0;entryDy=0;" edge="1" parent="1" source="5bOKIBlJ_df4a_-p4DKL-205" target="5bOKIBlJ_df4a_-p4DKL-203">
          <mxGeometry width="50" height="50" relative="1" as="geometry">
            <mxPoint x="370" y="4180" as="sourcePoint" />
            <mxPoint x="420" y="4130" as="targetPoint" />
          </mxGeometry>
        </mxCell>
        <mxCell id="5bOKIBlJ_df4a_-p4DKL-228" value="" style="endArrow=none;html=1;rounded=0;entryX=0;entryY=0.5;entryDx=0;entryDy=0;exitX=1;exitY=0.5;exitDx=0;exitDy=0;" edge="1" parent="1" source="5bOKIBlJ_df4a_-p4DKL-203" target="5bOKIBlJ_df4a_-p4DKL-207">
          <mxGeometry width="50" height="50" relative="1" as="geometry">
            <mxPoint x="370" y="4180" as="sourcePoint" />
            <mxPoint x="420" y="4130" as="targetPoint" />
          </mxGeometry>
        </mxCell>
        <mxCell id="5bOKIBlJ_df4a_-p4DKL-229" value="" style="endArrow=none;html=1;rounded=0;exitX=1;exitY=0.5;exitDx=0;exitDy=0;entryX=0;entryY=0.5;entryDx=0;entryDy=0;" edge="1" parent="1" source="5bOKIBlJ_df4a_-p4DKL-196" target="5bOKIBlJ_df4a_-p4DKL-193">
          <mxGeometry width="50" height="50" relative="1" as="geometry">
            <mxPoint x="370" y="3810" as="sourcePoint" />
            <mxPoint x="420" y="3760" as="targetPoint" />
          </mxGeometry>
        </mxCell>
        <mxCell id="5bOKIBlJ_df4a_-p4DKL-230" value="" style="endArrow=none;html=1;rounded=0;exitX=0;exitY=0.5;exitDx=0;exitDy=0;" edge="1" parent="1" source="5bOKIBlJ_df4a_-p4DKL-195">
          <mxGeometry width="50" height="50" relative="1" as="geometry">
            <mxPoint x="370" y="3810" as="sourcePoint" />
            <mxPoint x="300" y="3800" as="targetPoint" />
          </mxGeometry>
        </mxCell>
        <mxCell id="5bOKIBlJ_df4a_-p4DKL-223" value="No" style="rounded=0;whiteSpace=wrap;html=1;" vertex="1" parent="1">
          <mxGeometry x="490" y="4310" width="60" height="30" as="geometry" />
        </mxCell>
        <mxCell id="5bOKIBlJ_df4a_-p4DKL-232" value="" style="endArrow=none;html=1;rounded=0;entryX=0.5;entryY=1;entryDx=0;entryDy=0;exitX=0.5;exitY=0;exitDx=0;exitDy=0;" edge="1" parent="1" source="5bOKIBlJ_df4a_-p4DKL-223" target="5bOKIBlJ_df4a_-p4DKL-213">
          <mxGeometry width="50" height="50" relative="1" as="geometry">
            <mxPoint x="370" y="4180" as="sourcePoint" />
            <mxPoint x="420" y="4130" as="targetPoint" />
          </mxGeometry>
        </mxCell>
        <mxCell id="5bOKIBlJ_df4a_-p4DKL-233" value="" style="endArrow=none;html=1;rounded=0;entryX=0;entryY=0.5;entryDx=0;entryDy=0;exitX=1;exitY=0.5;exitDx=0;exitDy=0;" edge="1" parent="1" source="5bOKIBlJ_df4a_-p4DKL-55" target="5bOKIBlJ_df4a_-p4DKL-74">
          <mxGeometry width="50" height="50" relative="1" as="geometry">
            <mxPoint x="370" y="1680" as="sourcePoint" />
            <mxPoint x="420" y="1630" as="targetPoint" />
          </mxGeometry>
        </mxCell>
        <mxCell id="5bOKIBlJ_df4a_-p4DKL-237" style="edgeStyle=orthogonalEdgeStyle;rounded=0;orthogonalLoop=1;jettySize=auto;html=1;entryX=1;entryY=0.5;entryDx=0;entryDy=0;exitX=0.5;exitY=1;exitDx=0;exitDy=0;" edge="1" parent="1" source="5bOKIBlJ_df4a_-p4DKL-235" target="5bOKIBlJ_df4a_-p4DKL-213">
          <mxGeometry relative="1" as="geometry">
            <Array as="points">
              <mxPoint x="240" y="4610" />
              <mxPoint x="630" y="4610" />
              <mxPoint x="630" y="4220" />
            </Array>
          </mxGeometry>
        </mxCell>
        <mxCell id="5bOKIBlJ_df4a_-p4DKL-235" value="Set prev_floor to&lt;br&gt;current_floor" style="rounded=0;whiteSpace=wrap;html=1;" vertex="1" parent="1">
          <mxGeometry x="180" y="4490" width="120" height="60" as="geometry" />
        </mxCell>
        <mxCell id="5bOKIBlJ_df4a_-p4DKL-239" value="Self practice 1" style="text;html=1;align=center;verticalAlign=middle;resizable=0;points=[];autosize=1;strokeColor=none;fillColor=none;" vertex="1" parent="1">
          <mxGeometry x="30" y="3530" width="100" height="30" as="geometry" />
        </mxCell>
        <mxCell id="5bOKIBlJ_df4a_-p4DKL-240" value="End" style="ellipse;whiteSpace=wrap;html=1;" vertex="1" parent="1">
          <mxGeometry x="1520" y="3570" width="120" height="80" as="geometry" />
        </mxCell>
        <mxCell id="5bOKIBlJ_df4a_-p4DKL-254" style="edgeStyle=orthogonalEdgeStyle;rounded=0;orthogonalLoop=1;jettySize=auto;html=1;entryX=1;entryY=0.5;entryDx=0;entryDy=0;" edge="1" parent="1" source="5bOKIBlJ_df4a_-p4DKL-242" target="5bOKIBlJ_df4a_-p4DKL-249">
          <mxGeometry relative="1" as="geometry" />
        </mxCell>
        <mxCell id="5bOKIBlJ_df4a_-p4DKL-242" value="Start" style="ellipse;whiteSpace=wrap;html=1;" vertex="1" parent="1">
          <mxGeometry x="1210" y="3330" width="120" height="80" as="geometry" />
        </mxCell>
        <mxCell id="5bOKIBlJ_df4a_-p4DKL-261" style="edgeStyle=orthogonalEdgeStyle;rounded=0;orthogonalLoop=1;jettySize=auto;html=1;entryX=0.5;entryY=1;entryDx=0;entryDy=0;" edge="1" parent="1" source="5bOKIBlJ_df4a_-p4DKL-243" target="5bOKIBlJ_df4a_-p4DKL-252">
          <mxGeometry relative="1" as="geometry" />
        </mxCell>
        <mxCell id="5bOKIBlJ_df4a_-p4DKL-243" value="Update maxFlowers" style="rounded=0;whiteSpace=wrap;html=1;" vertex="1" parent="1">
          <mxGeometry x="1200" y="3900" width="120" height="60" as="geometry" />
        </mxCell>
        <mxCell id="5bOKIBlJ_df4a_-p4DKL-260" style="edgeStyle=orthogonalEdgeStyle;rounded=0;orthogonalLoop=1;jettySize=auto;html=1;entryX=0;entryY=0.5;entryDx=0;entryDy=0;" edge="1" parent="1" source="5bOKIBlJ_df4a_-p4DKL-244" target="5bOKIBlJ_df4a_-p4DKL-243">
          <mxGeometry relative="1" as="geometry" />
        </mxCell>
        <mxCell id="5bOKIBlJ_df4a_-p4DKL-244" value="Calculate totalFlowers" style="rounded=0;whiteSpace=wrap;html=1;" vertex="1" parent="1">
          <mxGeometry x="1010" y="3900" width="120" height="60" as="geometry" />
        </mxCell>
        <mxCell id="5bOKIBlJ_df4a_-p4DKL-259" style="edgeStyle=orthogonalEdgeStyle;rounded=0;orthogonalLoop=1;jettySize=auto;html=1;entryX=0.5;entryY=0;entryDx=0;entryDy=0;" edge="1" parent="1" source="5bOKIBlJ_df4a_-p4DKL-245" target="5bOKIBlJ_df4a_-p4DKL-244">
          <mxGeometry relative="1" as="geometry" />
        </mxCell>
        <mxCell id="5bOKIBlJ_df4a_-p4DKL-245" value="Iterate over each cell" style="rounded=0;whiteSpace=wrap;html=1;" vertex="1" parent="1">
          <mxGeometry x="1010" y="3790" width="120" height="60" as="geometry" />
        </mxCell>
        <mxCell id="5bOKIBlJ_df4a_-p4DKL-258" style="edgeStyle=orthogonalEdgeStyle;rounded=0;orthogonalLoop=1;jettySize=auto;html=1;entryX=0.5;entryY=0;entryDx=0;entryDy=0;" edge="1" parent="1" source="5bOKIBlJ_df4a_-p4DKL-246" target="5bOKIBlJ_df4a_-p4DKL-245">
          <mxGeometry relative="1" as="geometry" />
        </mxCell>
        <mxCell id="5bOKIBlJ_df4a_-p4DKL-246" value="Initialize maxFlowers to 0" style="rounded=0;whiteSpace=wrap;html=1;" vertex="1" parent="1">
          <mxGeometry x="1010" y="3670" width="120" height="60" as="geometry" />
        </mxCell>
        <mxCell id="5bOKIBlJ_df4a_-p4DKL-257" style="edgeStyle=orthogonalEdgeStyle;rounded=0;orthogonalLoop=1;jettySize=auto;html=1;entryX=0.5;entryY=0;entryDx=0;entryDy=0;" edge="1" parent="1" source="5bOKIBlJ_df4a_-p4DKL-247" target="5bOKIBlJ_df4a_-p4DKL-246">
          <mxGeometry relative="1" as="geometry" />
        </mxCell>
        <mxCell id="5bOKIBlJ_df4a_-p4DKL-247" value="Calculate column sums" style="rounded=0;whiteSpace=wrap;html=1;" vertex="1" parent="1">
          <mxGeometry x="1010" y="3560" width="120" height="60" as="geometry" />
        </mxCell>
        <mxCell id="5bOKIBlJ_df4a_-p4DKL-256" style="edgeStyle=orthogonalEdgeStyle;rounded=0;orthogonalLoop=1;jettySize=auto;html=1;entryX=0.5;entryY=0;entryDx=0;entryDy=0;" edge="1" parent="1" source="5bOKIBlJ_df4a_-p4DKL-248" target="5bOKIBlJ_df4a_-p4DKL-247">
          <mxGeometry relative="1" as="geometry" />
        </mxCell>
        <mxCell id="5bOKIBlJ_df4a_-p4DKL-248" value="Calculate row sums" style="rounded=0;whiteSpace=wrap;html=1;" vertex="1" parent="1">
          <mxGeometry x="1010" y="3450" width="120" height="60" as="geometry" />
        </mxCell>
        <mxCell id="5bOKIBlJ_df4a_-p4DKL-255" style="edgeStyle=orthogonalEdgeStyle;rounded=0;orthogonalLoop=1;jettySize=auto;html=1;entryX=0.5;entryY=0;entryDx=0;entryDy=0;" edge="1" parent="1" source="5bOKIBlJ_df4a_-p4DKL-249" target="5bOKIBlJ_df4a_-p4DKL-248">
          <mxGeometry relative="1" as="geometry" />
        </mxCell>
        <mxCell id="5bOKIBlJ_df4a_-p4DKL-249" value="Input n,m" style="rounded=0;whiteSpace=wrap;html=1;" vertex="1" parent="1">
          <mxGeometry x="1010" y="3340" width="120" height="60" as="geometry" />
        </mxCell>
        <mxCell id="5bOKIBlJ_df4a_-p4DKL-262" style="edgeStyle=orthogonalEdgeStyle;rounded=0;orthogonalLoop=1;jettySize=auto;html=1;entryX=0.5;entryY=1;entryDx=0;entryDy=0;" edge="1" parent="1" source="5bOKIBlJ_df4a_-p4DKL-265" target="5bOKIBlJ_df4a_-p4DKL-253">
          <mxGeometry relative="1" as="geometry" />
        </mxCell>
        <mxCell id="5bOKIBlJ_df4a_-p4DKL-264" style="edgeStyle=orthogonalEdgeStyle;rounded=0;orthogonalLoop=1;jettySize=auto;html=1;entryX=1;entryY=0.5;entryDx=0;entryDy=0;" edge="1" parent="1" source="5bOKIBlJ_df4a_-p4DKL-267" target="5bOKIBlJ_df4a_-p4DKL-245">
          <mxGeometry relative="1" as="geometry" />
        </mxCell>
        <mxCell id="5bOKIBlJ_df4a_-p4DKL-252" value="Check next cell" style="rounded=0;whiteSpace=wrap;html=1;" vertex="1" parent="1">
          <mxGeometry x="1350" y="3790" width="120" height="60" as="geometry" />
        </mxCell>
        <mxCell id="5bOKIBlJ_df4a_-p4DKL-263" style="edgeStyle=orthogonalEdgeStyle;rounded=0;orthogonalLoop=1;jettySize=auto;html=1;entryX=0;entryY=0.5;entryDx=0;entryDy=0;" edge="1" parent="1" source="5bOKIBlJ_df4a_-p4DKL-253" target="5bOKIBlJ_df4a_-p4DKL-240">
          <mxGeometry relative="1" as="geometry" />
        </mxCell>
        <mxCell id="5bOKIBlJ_df4a_-p4DKL-253" value="Output &lt;br&gt;maxFlowers" style="shape=parallelogram;perimeter=parallelogramPerimeter;whiteSpace=wrap;html=1;fixedSize=1;" vertex="1" parent="1">
          <mxGeometry x="1350" y="3580" width="120" height="60" as="geometry" />
        </mxCell>
        <mxCell id="5bOKIBlJ_df4a_-p4DKL-266" value="" style="edgeStyle=orthogonalEdgeStyle;rounded=0;orthogonalLoop=1;jettySize=auto;html=1;entryX=0.5;entryY=1;entryDx=0;entryDy=0;endArrow=none;endFill=0;" edge="1" parent="1" source="5bOKIBlJ_df4a_-p4DKL-252" target="5bOKIBlJ_df4a_-p4DKL-265">
          <mxGeometry relative="1" as="geometry">
            <mxPoint x="1410" y="3790" as="sourcePoint" />
            <mxPoint x="1410" y="3640" as="targetPoint" />
          </mxGeometry>
        </mxCell>
        <mxCell id="5bOKIBlJ_df4a_-p4DKL-265" value="no more cells" style="rounded=0;whiteSpace=wrap;html=1;" vertex="1" parent="1">
          <mxGeometry x="1365" y="3710" width="90" height="30" as="geometry" />
        </mxCell>
        <mxCell id="5bOKIBlJ_df4a_-p4DKL-268" value="" style="edgeStyle=orthogonalEdgeStyle;rounded=0;orthogonalLoop=1;jettySize=auto;html=1;entryX=1;entryY=0.5;entryDx=0;entryDy=0;endArrow=none;endFill=0;" edge="1" parent="1" source="5bOKIBlJ_df4a_-p4DKL-252" target="5bOKIBlJ_df4a_-p4DKL-267">
          <mxGeometry relative="1" as="geometry">
            <mxPoint x="1350" y="3820" as="sourcePoint" />
            <mxPoint x="1130" y="3820" as="targetPoint" />
          </mxGeometry>
        </mxCell>
        <mxCell id="5bOKIBlJ_df4a_-p4DKL-267" value="more cells" style="rounded=0;whiteSpace=wrap;html=1;" vertex="1" parent="1">
          <mxGeometry x="1203" y="3805" width="75" height="30" as="geometry" />
        </mxCell>
        <mxCell id="5bOKIBlJ_df4a_-p4DKL-269" value="Self practice 2" style="text;html=1;align=center;verticalAlign=middle;resizable=0;points=[];autosize=1;strokeColor=none;fillColor=none;" vertex="1" parent="1">
          <mxGeometry x="1410" y="3368" width="100" height="30" as="geometry" />
        </mxCell>
      </root>
    </mxGraphModel>
  </diagram>
</mxfile>
